<svg width="156" height="212" viewBox="0 0 156 212" fill="none" xmlns="http://www.w3.org/2000/svg">
<path fill-rule="evenodd" clip-rule="evenodd" d="M102.922 10.284V85.9285C102.922 94.5326 103.215 102.386 103.215 111.143C103.215 127.952 103.215 144.762 103.215 161.571C103.215 178.565 103.509 194.855 103.509 212H112.012V121.99H108.786V80.356H106.148V35.4983C106.148 34.4204 105.521 34.6177 104.094 34.6177V0.314697H102.922V10.284Z" fill="white"/>
<path fill-rule="evenodd" clip-rule="evenodd" d="M118.753 197.34H126.669V113.486H122.271V71.8529H120.511V34.3241H118.46V10.5759H117.287L117.581 151.309C117.581 165.806 118.089 180.445 117.857 195.011C117.836 196.256 117.566 197.34 118.753 197.34Z" fill="white"/>
<path fill-rule="evenodd" clip-rule="evenodd" d="M88.2598 109.383H89.7259V129.32H88.8453V203.791H97.3484V129.32H93.2436V82.7013H91.484V40.7758H89.4323V9.69702H88.2598V109.383Z" fill="white"/>
<path fill-rule="evenodd" clip-rule="evenodd" d="M131.947 97.9478V168.313H133.12V181.8H141.915V115.246C141.915 113.87 140.114 114.365 136.637 114.365V71.8528H134.878V37.5499C134.878 36.472 134.253 36.6708 132.826 36.6708V20.5452C131.273 20.6746 131.635 21.0628 131.652 24.0629L131.696 58.6184C132.288 63.8878 131.947 90.4641 131.947 97.9493V97.9478Z" fill="white"/>
<path fill-rule="evenodd" clip-rule="evenodd" d="M73.8949 92.0834H74.774V126.094C74.785 129.431 75.2174 129.771 73.6014 129.906L73.5982 187.081C73.5603 191.094 72.2284 190.303 82.3965 190.303V129.906H77.9981V86.514H76.8256V42.8289H74.7724V24.358C74.7724 23.5469 74.5467 23.6526 73.8933 23.479V92.0865L73.8949 92.0834Z" fill="white"/>
<path fill-rule="evenodd" clip-rule="evenodd" d="M146.9 168.315H154.816C155.492 168.315 155.697 168.111 155.697 167.436V117.299H152.471V71.5609H149.833V40.4822H146.9V168.313V168.315Z" fill="white"/>
<path fill-rule="evenodd" clip-rule="evenodd" d="M59.2344 176.525H68.323V128.733H63.9247V75.6658H61.5795V42.8273H60.1134V37.8435H59.2344V176.525Z" fill="white"/>
<path fill-rule="evenodd" clip-rule="evenodd" d="M29.3301 67.7496V146.326H39.2993V109.091H34.3139V63.9399C32.4801 65.1693 30.3843 67.4703 29.3301 67.7512V67.7496Z" fill="white"/>
<path fill-rule="evenodd" clip-rule="evenodd" d="M44.8692 161.863C48.9203 161.863 51.6127 162.474 51.6127 160.984V117.885H48.095V68.9205H46.9224V50.4497C43.8844 51.2609 44.2616 53.3598 44.279 54.8433L43.9902 155.413C43.9902 158.186 43.4299 161.863 44.8692 161.863Z" fill="white"/>
<path fill-rule="evenodd" clip-rule="evenodd" d="M14.9609 116.127V131.372H23.4641V102.932H20.5319C20.5319 94.7504 20.2383 87.2526 20.2383 78.8899L17.3803 81.3092C16.0562 82.5654 15.2718 82.1804 15.2292 84.4356C15.1645 87.917 15.2529 91.5184 15.2545 95.0156C15.2561 98.6943 14.9609 101.458 14.9609 105.278C14.9609 108.894 14.9609 112.511 14.9609 116.127Z" fill="white"/>
<path fill-rule="evenodd" clip-rule="evenodd" d="M0.302734 97.6542C0.302734 100.271 0.59627 101.731 0.59627 104.398V117.299H8.80588V102.933H5.28815V93.8445C4.03509 94.1791 1.55738 96.8162 0.304314 97.6557L0.302734 97.6542Z" fill="white"/>
</svg>
